<?xml version="1.0" encoding="utf-8"?>
<!-- Generator: Adobe Illustrator 23.0.1, SVG Export Plug-In . SVG Version: 6.00 Build 0)  -->
<svg version="1.1" id="Слой_1" xmlns="http://www.w3.org/2000/svg" xmlns:xlink="http://www.w3.org/1999/xlink" x="0px" y="0px"
     viewBox="0 0 432.3 115.47" style="enable-background:new 0 0 432.3 115.47;" xml:space="preserve">
<style type="text/css">
	.st0{fill-rule:evenodd;clip-rule:evenodd;fill:#FFFFFF;}
	.st1{fill-rule:evenodd;clip-rule:evenodd;fill:#005fb2;}
	.st2{fill-rule:evenodd;clip-rule:evenodd;fill:#ff8100;}
</style>
    <path class="st0" d="M0,3.09c37.46,0,74.92,0,112.38,0c0,37.46,0,74.92,0,112.38c-37.46,0-74.92,0-112.38,0C0,78.01,0,40.55,0,3.09"
    />
    <path class="st1" d="M1.9,4.99c36.19,0,72.38,0,108.57,0c0,36.19,0,72.38,0,108.57c-36.19,0-72.38,0-108.57,0
	C1.9,77.38,1.9,41.18,1.9,4.99"/>
    <path class="st2" d="M33.25,85.55c5.66,0,11.31,0,16.97,0c0-2.92,0-5.83,0-8.75c-5.66,0-11.31,0-16.97,0c0-6.41,0-12.83,0-19.24
	c5.66,0,11.31,0,16.97,0c0-2.92,0-5.83,0-8.75c-5.66,0-11.31,0-16.97,0c-4.81,0-8.75,3.94-8.75,8.75c0,6.41,0,12.83,0,19.24
	C24.5,81.62,28.44,85.55,33.25,85.55"/>
    <path class="st0" d="M19.45,98.89c24.49,0,48.98,0,73.47,0c0-2.92,0-5.83,0-8.75c-24.49,0-48.98,0-73.47,0
	C19.45,93.06,19.45,95.98,19.45,98.89 M67.23,76.81c3.96,0,7.93,0,11.89,0c0-6.41,0-12.83,0-19.24c-3.96,0-7.93,0-11.89,0
	C67.23,63.98,67.23,70.39,67.23,76.81z M79.13,85.55c-8.11,0-16.21,0-24.32,0c0-2.92,0-5.83,0-8.75c1.22,0,2.45,0,3.67,0
	c0-6.41,0-12.83,0-19.24c-1.22,0-2.45,0-3.67,0c0-2.92,0-5.83,0-8.75c8.11,0,16.21,0,24.32,0c4.81,0,8.75,3.94,8.75,8.75
	c0,6.41,0,12.83,0,19.24C87.88,81.62,83.94,85.55,79.13,85.55z M8.76,47.05c1.33,2.32,2.66,4.63,3.99,6.95
	c14.48-8.36,28.96-16.72,43.43-25.08C70.67,37.28,85.15,45.64,99.63,54c1.33-2.32,2.66-4.63,3.99-6.95
	c-5.25-3.03-10.5-6.06-15.74-9.09c0-6.1,0-12.2,0-18.29c-2.92,0-5.83,0-8.75,0c0,4.41,0,8.83,0,13.24
	c-7.65-4.41-15.29-8.83-22.94-13.24C40.38,28.8,24.57,37.92,8.76,47.05z"/>
    <path class="st0" d="M129.24,4.96c5.17,0,9.37,4.19,9.37,9.37c0,5.17-4.19,9.36-9.37,9.36c-5.17,0-9.36-4.19-9.36-9.36
	C119.87,9.16,124.07,4.96,129.24,4.96 M129.24,3.09c6.21,0,11.24,5.03,11.24,11.24s-5.03,11.24-11.24,11.24
	c-6.21,0-11.24-5.03-11.24-11.24S123.03,3.09,129.24,3.09z M126.43,13.39c1.25,0,2.5,0,3.75,0c1.03,0,1.87-0.85,1.87-1.87
	c0-1.03-0.85-1.87-1.87-1.87c-1.25,0-2.5,0-3.75,0C126.43,10.89,126.43,12.14,126.43,13.39z M133.92,11.52
	c0,1.9-1.43,3.48-3.26,3.71c1.09,1.88,2.17,3.77,3.26,5.65c-0.72,0-1.44,0-2.16,0c-1.08-1.87-2.16-3.75-3.24-5.62
	c-0.7,0-1.39,0-2.09,0c0,1.87,0,3.75,0,5.62c-0.62,0-1.25,0-1.87,0c0-4.37,0-8.74,0-13.11c1.87,0,3.75,0,5.62,0
	C132.23,7.77,133.92,9.46,133.92,11.52z"/>
    <path class="st0" d="M282.5,81.76c-3.51,0-7.02,0-10.54,0c0,11.24,0,22.48,0,33.71c3.51,0,7.02,0,10.54,0c0-4.16,0-8.33,0-12.49
	c4.17,4.16,8.33,8.33,12.5,12.49c4.97,0,9.93,0,14.9,0c-5.62-5.62-11.24-11.24-16.86-16.86c5.62-5.62,11.24-11.24,16.86-16.86
	c-4.97,0-9.93,0-14.9,0c-4.17,4.16-8.33,8.33-12.5,12.49C282.5,90.09,282.5,85.92,282.5,81.76 M243.51,81.76c7.38,0,14.76,0,22.14,0
	c0,3.51,0,7.02,0,10.54c-7.24,0-14.48,0-21.72,0c0,4.21,0,8.43,0,12.64c7.24,0,14.48,0,21.72,0c0,3.51,0,7.02,0,10.54
	c-7.38,0-14.76,0-22.14,0c-5.56,0-10.12-4.55-10.12-10.12c0-4.5,0-8.99,0-13.48C233.39,86.31,237.94,81.76,243.51,81.76z
	 M203.89,81.76c-3.51,0-7.02,0-10.54,0c0,11.24,0,22.48,0,33.71c7.73-4.87,15.46-9.74,23.18-14.61c0,4.87,0,9.74,0,14.61
	c3.51,0,7.02,0,10.54,0c0-11.24,0-22.48,0-33.71c-7.73,4.87-15.46,9.74-23.18,14.61C203.89,91.5,203.89,86.63,203.89,81.76z
	 M176.92,81.76c-8.52,0-17.05,0-25.57,0c0,11.24,0,22.48,0,33.71c8.52,0,17.05,0,25.57,0c5.56,0,10.12-4.55,10.12-10.12
	c0-4.5,0-8.99,0-13.48C187.03,86.31,182.48,81.76,176.92,81.76z M176.5,92.29c-4.87,0-9.74,0-14.61,0c0,4.21,0,8.43,0,12.64
	c4.87,0,9.74,0,14.61,0C176.5,100.72,176.5,96.51,176.5,92.29z M421.42,92.29c0,7.73,0,15.45,0,23.18c-3.51,0-7.03,0-10.54,0
	c0-7.73,0-15.45,0-23.18c-3.63,0-7.26,0-10.89,0c0-3.51,0-7.02,0-10.54c10.77,0,21.54,0,32.31,0c0,3.51,0,7.02,0,10.54
	C428.67,92.29,425.04,92.29,421.42,92.29z M339.97,81.76c-6.25,0-12.49,0-18.74,0c-5.56,0-10.12,4.55-10.12,10.11
	c0,4.49,0,8.99,0,13.48c0,5.56,4.55,10.12,10.12,10.12c6.24,0,12.49,0,18.74,0c5.56,0,10.12-4.55,10.12-10.12c0-4.5,0-8.99,0-13.48
	C350.09,86.31,345.53,81.76,339.97,81.76z M339.55,92.29c-5.96,0-11.93,0-17.89,0c0,4.21,0,8.43,0,12.64c5.96,0,11.93,0,17.89,0
	C339.55,100.72,339.55,96.51,339.55,92.29z M383.02,81.76c3.51,0,7.03,0,10.54,0c0,11.24,0,22.48,0,33.71c-3.51,0-7.03,0-10.54,0
	c0-3.86,0-7.73,0-11.59c-5.32,0-10.64,0-15.96,0c0,3.86,0,7.73,0,11.59c-3.51,0-7.02,0-10.54,0c0-11.24,0-22.48,0-33.71
	c3.51,0,7.02,0,10.54,0c0,3.86,0,7.73,0,11.59c5.32,0,10.64,0,15.96,0C383.02,89.48,383.02,85.62,383.02,81.76z"/>
    <path class="st2" d="M421.55,18.32c0-5.08,0-10.16,0-15.23c-4.85,3.05-9.69,6.11-14.54,9.16c0,5.08,0,10.16,0,15.23
	C411.86,24.43,416.71,21.38,421.55,18.32 M397.53,22.76c-5.27,0-10.54,0-15.8,0c0,16.86,0,33.71,0,50.57
	c11.59-7.3,23.18-14.61,34.77-21.91c0,7.3,0,14.61,0,21.91c5.27,0,10.54,0,15.8,0c0-16.86,0-33.71,0-50.57
	c-11.59,7.3-23.18,14.61-34.77,21.91C397.53,37.37,397.53,30.06,397.53,22.76z M357.42,38.56c-7.73,0-15.46,0-23.19,0
	c0,6.32,0,12.64,0,18.96c7.73,0,15.46,0,23.19,0C357.42,51.2,357.42,44.88,357.42,38.56z M358.05,22.76c-8.15,0-16.3,0-24.45,0
	c-8.34,0-15.17,6.83-15.17,15.17c0,6.74,0,13.48,0,20.23c0,8.34,6.83,15.17,15.17,15.17c8.15,0,16.3,0,24.45,0
	c8.34,0,15.17-6.83,15.17-15.17c0-6.74,0-13.49,0-20.23C373.22,29.58,366.39,22.76,358.05,22.76z M259.35,22.76
	c11.8,0,23.6,0,35.4,0c8.34,0,15.17,6.83,15.17,15.17c0,3.8,0,7.6,0,11.4c0,8.34-6.83,15.17-15.17,15.17c-6.53,0-13.06,0-19.6,0
	c0,2.94,0,5.88,0,8.82c-5.27,0-10.54,0-15.8,0C259.35,56.47,259.35,39.61,259.35,22.76z M275.15,38.56c6.32,0,12.64,0,18.96,0
	c0,3.38,0,6.76,0,10.14c-6.32,0-12.64,0-18.96,0C275.15,45.32,275.15,41.94,275.15,38.56z M204.3,22.76c15.68,0,31.37,0,47.05,0
	c0,5.27,0,10.54,0,15.8c-5.21,0-10.42,0-15.63,0c0,11.59,0,23.18,0,34.77c-5.27,0-10.54,0-15.8,0c0-11.59,0-23.18,0-34.77
	c-5.21,0-10.42,0-15.63,0C204.3,33.29,204.3,28.02,204.3,22.76z M166.52,22.76c9.93,0,19.86,0,29.79,0c0,5.27,0,10.54,0,15.8
	c-9.72,0-19.44,0-29.16,0c0,6.32,0,12.64,0,18.96c9.72,0,19.44,0,29.16,0c0,5.27,0,10.54,0,15.8c-9.93,0-19.86,0-29.79,0
	c-8.34,0-15.17-6.83-15.17-15.17c0-6.74,0-13.49,0-20.23C151.35,29.58,158.17,22.76,166.52,22.76z"/>
    <path class="st0" d="M266.82,9.96l3.09,4.37h3.92l-4.06-5.62l4.06-5.62h-3.92l-3.09,4.37h-1.11V3.09h-3.12v11.24h3.12l0-4.29V9.96
	H266.82z M287.04,3.09h-6.25c-1.37,0-2.49,1.12-2.49,2.5v6.25c0,1.37,1.12,2.5,2.49,2.5h6.25c1.37,0,2.5-1.12,2.5-2.5V5.59
	C289.53,4.21,288.41,3.09,287.04,3.09z M285.91,5.59h-4c-0.27,0-0.5,0.22-0.5,0.5v5.25c0,0.27,0.22,0.5,0.5,0.5h4
	c0.27,0,0.5-0.23,0.5-0.5V6.09C286.41,5.81,286.19,5.59,285.91,5.59z M296.17,3.09h4.19l2.68,7.52l2.68-7.52h4.19v11.24h-3.12V7.54
	l-2.42,6.79h-2.65l-2.42-6.79v6.79h-3.12V3.09z M316.14,3.09v11.24h3.12V5.59h4.99v8.74h3.12V3.09H316.14z M337.31,3.09l-4.09,11.24
	h3.32l0.68-1.87h4.48l0.68,1.87h3.32l-4.09-11.24H337.31z M338.13,9.96l1.33-3.66l1.33,3.66H338.13z M362.58,3.09h-3.12v4.37h-5
	V3.09h-3.12v11.24h3.12V9.96h5v4.37h3.12V3.09z M368.82,3.09h3.12v6.95l5-6.95h3.12v11.24h-3.12V7.38l-5,6.95h-3.12V3.09z
	 M237.91,9.96l1.33-3.66l1.33,3.66H237.91z M237.09,3.09l-4.09,11.24h0h3.32l0.68-1.87h4.48l0.68,1.87h3.32l-4.09-11.24H237.09z
	 M151.35,3.09v11.24h3.12V5.59h5.62v-2.5H151.35z M174.1,3.09c1.37,0,2.5,1.12,2.5,2.5v3.75c0.03,1.37-1.12,2.5-2.5,2.5h-5.62v2.5
	h-3.12V3.09H174.1z M168.48,9.34h4.5c0.28,0,0.5-0.22,0.5-0.5V6.09c0-0.27-0.22-0.5-0.5-0.5h-4.5V9.34z M189.08,7.9h-1.86
	c-0.25,0-0.55-0.17-0.64-0.42l-1.59-4.38h-3.32l1.85,5.05c0.48,1.3,2,2.26,3.29,2.26h1.37l-0.37,1.02c-0.09,0.25-0.4,0.42-0.64,0.42
	h-3.22l-0.05,2.5h3.68c1.29,0,2.82-0.95,3.29-2.25l3.28-8.98h-3.32L189.08,7.9z M199.21,3.09v11.24h3.12V5.59h5v8.74h3.12V3.09
	H199.21z M216.69,3.09v11.24h3.12V5.59h4.99v8.74h3.12V3.09H216.69z M386.29,3.09h3.12v6.95l5-6.95h3.12v11.24h-3.12V7.38l-5,6.95
	h-3.12V3.09z M389.29,0h5.25v1.97h-5.25V0z"/>
</svg>
